<mxfile host="www.draw.io" modified="2020-02-26T15:49:27.991Z" agent="Mozilla/5.0 (Windows NT 10.0; Win64; x64) AppleWebKit/537.36 (KHTML, like Gecko) Chrome/80.0.3987.106 Safari/537.36" etag="n40kI74Sm_t8wGtS0v5i" version="12.7.7" type="github">
  <diagram id="C5RBs43oDa-KdzZeNtuy" name="Page-1">
    <mxGraphModel dx="1483" dy="783" grid="1" gridSize="10" guides="1" tooltips="1" connect="1" arrows="1" fold="1" page="1" pageScale="1" pageWidth="827" pageHeight="1169" math="0" shadow="0">
      <root>
        <mxCell id="WIyWlLk6GJQsqaUBKTNV-0" />
        <mxCell id="WIyWlLk6GJQsqaUBKTNV-1" parent="WIyWlLk6GJQsqaUBKTNV-0" />
        <mxCell id="ZQYL841AlwN9RQm3Srfx-0" value="&lt;p style=&quot;margin: 0px ; margin-top: 4px ; text-align: center&quot;&gt;&lt;b&gt;Layanan&lt;/b&gt;&lt;br&gt;&lt;/p&gt;&lt;hr size=&quot;1&quot;&gt;&lt;p style=&quot;margin: 0px ; margin-left: 4px&quot;&gt;&lt;span&gt;- id : int (Unique)&lt;/span&gt;&lt;/p&gt;&lt;p style=&quot;margin: 0px ; margin-left: 4px&quot;&gt;- nama : String&lt;span&gt;&lt;br&gt;&lt;/span&gt;&lt;/p&gt;&lt;p style=&quot;margin: 0px ; margin-left: 4px&quot;&gt;- created_at: Date&lt;br&gt;&lt;/p&gt;&lt;p style=&quot;margin: 0px ; margin-left: 4px&quot;&gt;- updated_at: Date&lt;/p&gt;&lt;p style=&quot;margin: 0px ; margin-left: 4px&quot;&gt;- deleted_at: Date&lt;br&gt;&lt;/p&gt;&lt;p style=&quot;margin: 0px ; margin-left: 4px&quot;&gt;- harga_perlayanan: Double&lt;br&gt;&lt;/p&gt;&lt;hr size=&quot;1&quot;&gt;&lt;p style=&quot;margin: 0px ; margin-left: 4px&quot;&gt;+ tambah_data_layanan()&lt;br style=&quot;padding: 0px ; margin: 0px&quot;&gt;+ tampil_data_layanan()&lt;br style=&quot;padding: 0px ; margin: 0px&quot;&gt;+ ubah_data_layanan()&lt;br style=&quot;padding: 0px ; margin: 0px&quot;&gt;+ hapus_data_layanan()&lt;br style=&quot;padding: 0px ; margin: 0px&quot;&gt;+ cari_data_layanan()&lt;br&gt;&lt;/p&gt;" style="verticalAlign=top;align=left;overflow=fill;fontSize=12;fontFamily=Helvetica;html=1;" vertex="1" parent="WIyWlLk6GJQsqaUBKTNV-1">
          <mxGeometry x="80" y="720" width="160" height="200" as="geometry" />
        </mxCell>
        <mxCell id="ZQYL841AlwN9RQm3Srfx-2" value="&lt;p style=&quot;margin: 0px ; margin-top: 4px ; text-align: center&quot;&gt;&lt;b&gt;Ukuran_hewan&lt;/b&gt;&lt;/p&gt;&lt;hr size=&quot;1&quot;&gt;&lt;p style=&quot;margin: 0px ; margin-left: 4px&quot;&gt;- id : int (Unique)&amp;nbsp;&lt;br&gt;&lt;/p&gt;&lt;p style=&quot;margin: 0px ; margin-left: 4px&quot;&gt;- nama : String&lt;span&gt;&lt;br&gt;&lt;/span&gt;&lt;/p&gt;&lt;p style=&quot;margin: 0px ; margin-left: 4px&quot;&gt;- created_at: Date&lt;br&gt;&lt;/p&gt;&lt;p style=&quot;margin: 0px ; margin-left: 4px&quot;&gt;- deleted_at: Date&lt;br&gt;&lt;/p&gt;&lt;p style=&quot;margin: 0px ; margin-left: 4px&quot;&gt;- updated_at: Date&lt;/p&gt;&lt;hr size=&quot;1&quot;&gt;&lt;p style=&quot;margin: 0px ; margin-left: 4px&quot;&gt;+ tambah_data_ukuran_hewan()&lt;br style=&quot;padding: 0px ; margin: 0px&quot;&gt;+ tampil_data_ukuran_hewan()&lt;br style=&quot;padding: 0px ; margin: 0px&quot;&gt;+ ubah_data_ukuran_hewan()&lt;br style=&quot;padding: 0px ; margin: 0px&quot;&gt;+ hapus_data_ukuran_hewan()&lt;br style=&quot;padding: 0px ; margin: 0px&quot;&gt;+ cari_data_ukuran_hewan()&lt;br&gt;&lt;/p&gt;" style="verticalAlign=top;align=left;overflow=fill;fontSize=12;fontFamily=Helvetica;html=1;" vertex="1" parent="WIyWlLk6GJQsqaUBKTNV-1">
          <mxGeometry x="280" y="245" width="180" height="190" as="geometry" />
        </mxCell>
        <mxCell id="ZQYL841AlwN9RQm3Srfx-3" value="&lt;p style=&quot;margin: 0px ; margin-top: 4px ; text-align: center&quot;&gt;&lt;b&gt;Pegawai&lt;/b&gt;&lt;/p&gt;&lt;hr size=&quot;1&quot;&gt;&lt;p style=&quot;margin: 0px ; margin-left: 4px&quot;&gt;- id : int (Unique)&lt;/p&gt;&lt;p style=&quot;margin: 0px ; margin-left: 4px&quot;&gt;- nama : String&lt;/p&gt;&lt;p style=&quot;margin: 0px ; margin-left: 4px&quot;&gt;&lt;span&gt;- alamat : String&lt;/span&gt;&lt;/p&gt;&lt;p style=&quot;margin: 0px ; margin-left: 4px&quot;&gt;&lt;span&gt;- tanggal_lahir : Date&lt;/span&gt;&lt;/p&gt;&lt;p style=&quot;margin: 0px ; margin-left: 4px&quot;&gt;&lt;span&gt;- telepon : varchar&lt;/span&gt;&lt;/p&gt;&lt;p style=&quot;margin: 0px ; margin-left: 4px&quot;&gt;&lt;span&gt;- role : String&lt;/span&gt;&lt;/p&gt;&lt;p style=&quot;margin: 0px ; margin-left: 4px&quot;&gt;&lt;span&gt;- password : String&lt;/span&gt;&lt;/p&gt;&lt;p style=&quot;margin: 0px ; margin-left: 4px&quot;&gt;&lt;span&gt;- created_at: Date&lt;/span&gt;&lt;/p&gt;&lt;p style=&quot;margin: 0px 0px 0px 4px&quot;&gt;- deleted_at: Date&lt;br&gt;&lt;/p&gt;&lt;p style=&quot;margin: 0px 0px 0px 4px&quot;&gt;- updated_at: Date&lt;/p&gt;&lt;hr size=&quot;1&quot;&gt;&lt;p style=&quot;margin: 0px ; margin-left: 4px&quot;&gt;+ tambah_data_pegawai()&lt;br style=&quot;padding: 0px ; margin: 0px&quot;&gt;+ tampil_data_pegawai()&lt;br style=&quot;padding: 0px ; margin: 0px&quot;&gt;+ ubah_data_pegawai()&lt;br style=&quot;padding: 0px ; margin: 0px&quot;&gt;+ hapus_data_pegawai()&lt;br style=&quot;padding: 0px ; margin: 0px&quot;&gt;+ cari_data_pegawai()&lt;br&gt;&lt;/p&gt;" style="verticalAlign=top;align=left;overflow=fill;fontSize=12;fontFamily=Helvetica;html=1;" vertex="1" parent="WIyWlLk6GJQsqaUBKTNV-1">
          <mxGeometry x="40" y="245" width="160" height="260" as="geometry" />
        </mxCell>
        <mxCell id="ZQYL841AlwN9RQm3Srfx-5" value="&lt;p style=&quot;margin: 0px ; margin-top: 4px ; text-align: center&quot;&gt;&lt;b&gt;Customer&lt;/b&gt;&lt;/p&gt;&lt;hr size=&quot;1&quot;&gt;&lt;p style=&quot;margin: 0px 0px 0px 4px&quot;&gt;- id : int (Unique)&lt;/p&gt;&lt;p style=&quot;margin: 0px 0px 0px 4px&quot;&gt;- nama : String&lt;/p&gt;&lt;p style=&quot;margin: 0px 0px 0px 4px&quot;&gt;- alamat : String&lt;/p&gt;&lt;p style=&quot;margin: 0px 0px 0px 4px&quot;&gt;- tanggal_lahir : Date&lt;/p&gt;&lt;p style=&quot;margin: 0px 0px 0px 4px&quot;&gt;- telepon : varchar&lt;/p&gt;&lt;p style=&quot;margin: 0px 0px 0px 4px&quot;&gt;- created_at: Date&lt;/p&gt;&lt;p style=&quot;margin: 0px 0px 0px 4px&quot;&gt;- deleted_at: Date&lt;br&gt;&lt;/p&gt;&lt;p style=&quot;margin: 0px 0px 0px 4px&quot;&gt;- updated_at: Date&lt;/p&gt;&lt;hr size=&quot;1&quot;&gt;&lt;p style=&quot;margin: 0px ; margin-left: 4px&quot;&gt;+ tambah_data_customer()&lt;br style=&quot;padding: 0px ; margin: 0px&quot;&gt;+ tampil_data_customer()&lt;br style=&quot;padding: 0px ; margin: 0px&quot;&gt;+ ubah_data_customer()&lt;br style=&quot;padding: 0px ; margin: 0px&quot;&gt;+ hapus_data_customer()&lt;br style=&quot;padding: 0px ; margin: 0px&quot;&gt;+ cari_data_customer()&lt;br&gt;&lt;/p&gt;" style="verticalAlign=top;align=left;overflow=fill;fontSize=12;fontFamily=Helvetica;html=1;" vertex="1" parent="WIyWlLk6GJQsqaUBKTNV-1">
          <mxGeometry x="350" y="600" width="160" height="230" as="geometry" />
        </mxCell>
        <mxCell id="ZQYL841AlwN9RQm3Srfx-6" value="&lt;p style=&quot;margin: 0px ; margin-top: 4px ; text-align: center&quot;&gt;&lt;b&gt;Hewan&lt;/b&gt;&lt;/p&gt;&lt;hr size=&quot;1&quot;&gt;&lt;p style=&quot;margin: 0px 0px 0px 4px&quot;&gt;- id : int (Unique)&lt;/p&gt;&lt;p style=&quot;margin: 0px 0px 0px 4px&quot;&gt;- nama : String&lt;/p&gt;&lt;p style=&quot;margin: 0px 0px 0px 4px&quot;&gt;- tanggal_lahir : Date&lt;/p&gt;&lt;p style=&quot;margin: 0px 0px 0px 4px&quot;&gt;- created_at: Date&lt;/p&gt;&lt;p style=&quot;margin: 0px 0px 0px 4px&quot;&gt;- deleted_at: Date&lt;br&gt;&lt;/p&gt;&lt;p style=&quot;margin: 0px 0px 0px 4px&quot;&gt;- updated_at: Date&lt;/p&gt;&lt;hr size=&quot;1&quot;&gt;&lt;p style=&quot;margin: 0px ; margin-left: 4px&quot;&gt;+ tambah_data_hewan()&lt;br style=&quot;padding: 0px ; margin: 0px&quot;&gt;+ tampil_data_hewan()&lt;br style=&quot;padding: 0px ; margin: 0px&quot;&gt;+ ubah_data_hewan()&lt;br style=&quot;padding: 0px ; margin: 0px&quot;&gt;+ hapus_data_hewan()&lt;br style=&quot;padding: 0px ; margin: 0px&quot;&gt;+ cari_data_hewan()&lt;br&gt;&lt;/p&gt;" style="verticalAlign=top;align=left;overflow=fill;fontSize=12;fontFamily=Helvetica;html=1;" vertex="1" parent="WIyWlLk6GJQsqaUBKTNV-1">
          <mxGeometry x="1026" y="560" width="160" height="200" as="geometry" />
        </mxCell>
        <mxCell id="ZQYL841AlwN9RQm3Srfx-7" value="&lt;p style=&quot;margin: 0px ; margin-top: 4px ; text-align: center&quot;&gt;&lt;b&gt;Jenis_hewan&lt;/b&gt;&lt;/p&gt;&lt;hr size=&quot;1&quot;&gt;&lt;p style=&quot;margin: 0px 0px 0px 4px&quot;&gt;- id : int (Unique)&lt;/p&gt;&lt;p style=&quot;margin: 0px 0px 0px 4px&quot;&gt;- nama : String&lt;/p&gt;&lt;p style=&quot;margin: 0px 0px 0px 4px&quot;&gt;- created_at: Date&lt;/p&gt;&lt;p style=&quot;margin: 0px 0px 0px 4px&quot;&gt;- deleted_at: Date&lt;br&gt;&lt;/p&gt;&lt;p style=&quot;margin: 0px 0px 0px 4px&quot;&gt;- updated_at: Date&lt;/p&gt;&lt;hr size=&quot;1&quot;&gt;&lt;p style=&quot;margin: 0px ; margin-left: 4px&quot;&gt;+ tambah_data_jenis_hewan()&lt;br style=&quot;padding: 0px ; margin: 0px&quot;&gt;+ tampil_data_jenis_hewan()&lt;br style=&quot;padding: 0px ; margin: 0px&quot;&gt;+ ubah_data_jenis_hewan()&lt;br style=&quot;padding: 0px ; margin: 0px&quot;&gt;+ hapus_data_jenis_hewan()&lt;br style=&quot;padding: 0px ; margin: 0px&quot;&gt;+ cari_data_jenis_hewan()&lt;br&gt;&lt;/p&gt;" style="verticalAlign=top;align=left;overflow=fill;fontSize=12;fontFamily=Helvetica;html=1;" vertex="1" parent="WIyWlLk6GJQsqaUBKTNV-1">
          <mxGeometry x="1120" y="280" width="169" height="190" as="geometry" />
        </mxCell>
        <mxCell id="ZQYL841AlwN9RQm3Srfx-9" value="&lt;p style=&quot;margin: 0px ; margin-top: 4px ; text-align: center&quot;&gt;&lt;b&gt;Supplier&lt;/b&gt;&lt;/p&gt;&lt;hr size=&quot;1&quot;&gt;&lt;p style=&quot;margin: 0px 0px 0px 4px&quot;&gt;- id : int (Unique)&lt;/p&gt;&lt;p style=&quot;margin: 0px 0px 0px 4px&quot;&gt;- nama : String&lt;/p&gt;&lt;p style=&quot;margin: 0px 0px 0px 4px&quot;&gt;- alamat : String&lt;/p&gt;&lt;p style=&quot;margin: 0px 0px 0px 4px&quot;&gt;- telepon : varchar&lt;/p&gt;&lt;p style=&quot;margin: 0px 0px 0px 4px&quot;&gt;- created_at: Date&lt;/p&gt;&lt;p style=&quot;margin: 0px 0px 0px 4px&quot;&gt;- deleted_at: Date&lt;br&gt;&lt;/p&gt;&lt;p style=&quot;margin: 0px 0px 0px 4px&quot;&gt;- updated_at: Date&lt;/p&gt;&lt;hr size=&quot;1&quot;&gt;&lt;p style=&quot;margin: 0px ; margin-left: 4px&quot;&gt;+ tambah_data_supplier()&lt;br style=&quot;padding: 0px ; margin: 0px&quot;&gt;+ tampil_data_supplier()&lt;br style=&quot;padding: 0px ; margin: 0px&quot;&gt;+ ubah_data_supplier()&lt;br style=&quot;padding: 0px ; margin: 0px&quot;&gt;+ hapus_data_supplier()&lt;br style=&quot;padding: 0px ; margin: 0px&quot;&gt;+ cari_data_supplier()&lt;br&gt;&lt;/p&gt;" style="verticalAlign=top;align=left;overflow=fill;fontSize=12;fontFamily=Helvetica;html=1;" vertex="1" parent="WIyWlLk6GJQsqaUBKTNV-1">
          <mxGeometry x="1200" width="160" height="220" as="geometry" />
        </mxCell>
        <mxCell id="Zcnm54V735AdrH91eZw3-0" value="&lt;p style=&quot;margin: 0px ; margin-top: 4px ; text-align: center&quot;&gt;&lt;b&gt;Detail_transaksi_layanan&lt;/b&gt;&lt;/p&gt;&lt;hr size=&quot;1&quot;&gt;&lt;p style=&quot;margin: 0px ; margin-left: 4px&quot;&gt;- id : int (Unique)&lt;/p&gt;&lt;p style=&quot;margin: 0px ; margin-left: 4px&quot;&gt;- jumlah : int&lt;/p&gt;&lt;hr size=&quot;1&quot;&gt;&lt;p style=&quot;margin: 0px ; margin-left: 4px&quot;&gt;+ tambah_data_detail_transaksi_layanan()&lt;br style=&quot;padding: 0px ; margin: 0px&quot;&gt;+ tampil_data_detail_transaksi_layanan()&lt;br style=&quot;padding: 0px ; margin: 0px&quot;&gt;+ ubah_data_detail_transaksi_layanan()&lt;br style=&quot;padding: 0px ; margin: 0px&quot;&gt;+ hapus_data_detail_transaksi_layanan()&lt;br style=&quot;padding: 0px ; margin: 0px&quot;&gt;&lt;/p&gt;&lt;p style=&quot;margin: 0px ; margin-left: 4px&quot;&gt;+ cari_data_detail_transaksi_layanan()&lt;/p&gt;" style="verticalAlign=top;align=left;overflow=fill;fontSize=12;fontFamily=Helvetica;html=1;" vertex="1" parent="WIyWlLk6GJQsqaUBKTNV-1">
          <mxGeometry x="690" y="560" width="270" height="160" as="geometry" />
        </mxCell>
        <mxCell id="Zcnm54V735AdrH91eZw3-2" value="&lt;p style=&quot;margin: 0px ; margin-top: 4px ; text-align: center&quot;&gt;&lt;b&gt;Detail_transaksi_produk&lt;/b&gt;&lt;/p&gt;&lt;hr size=&quot;1&quot;&gt;&lt;p style=&quot;margin: 0px ; margin-left: 4px&quot;&gt;- id : int (Unique)&lt;/p&gt;&lt;p style=&quot;margin: 0px ; margin-left: 4px&quot;&gt;- jumlah : int&lt;/p&gt;&lt;hr size=&quot;1&quot;&gt;&lt;p style=&quot;margin: 0px ; margin-left: 4px&quot;&gt;+ tambah_data_detail_transaksi_produk()&lt;br style=&quot;padding: 0px ; margin: 0px&quot;&gt;+ tampil_data_detail_transaksi_produk()&lt;br style=&quot;padding: 0px ; margin: 0px&quot;&gt;+ ubah_data_detail_transaksi_produk()&lt;br style=&quot;padding: 0px ; margin: 0px&quot;&gt;+ hapus_data_detail_transaksi_produk()&lt;br style=&quot;padding: 0px ; margin: 0px&quot;&gt;&lt;/p&gt;&lt;p style=&quot;margin: 0px ; margin-left: 4px&quot;&gt;+ cari_data_detail_transaksi_produk()&lt;/p&gt;" style="verticalAlign=top;align=left;overflow=fill;fontSize=12;fontFamily=Helvetica;html=1;" vertex="1" parent="WIyWlLk6GJQsqaUBKTNV-1">
          <mxGeometry x="1241" y="560" width="270" height="160" as="geometry" />
        </mxCell>
        <mxCell id="Zcnm54V735AdrH91eZw3-3" value="&lt;p style=&quot;margin: 0px ; margin-top: 4px ; text-align: center&quot;&gt;&lt;b&gt;Transaksi&lt;/b&gt;&lt;/p&gt;&lt;hr size=&quot;1&quot;&gt;&lt;p style=&quot;margin: 0px ; margin-left: 4px&quot;&gt;+ id: (Unique)&lt;br&gt;+ total_harga: int&lt;/p&gt;&lt;p style=&quot;margin: 0px ; margin-left: 4px&quot;&gt;+ status_bayar : int&lt;/p&gt;&lt;p style=&quot;margin: 0px ; margin-left: 4px&quot;&gt;+ status_layanan : int&lt;br&gt;&lt;/p&gt;&lt;p style=&quot;margin: 0px ; margin-left: 4px&quot;&gt;+ diskon : int&lt;br&gt;&lt;/p&gt;&lt;p style=&quot;margin: 0px ; margin-left: 4px&quot;&gt;+ tgl_transaksi : date&lt;/p&gt;&lt;p style=&quot;margin: 0px ; margin-left: 4px&quot;&gt;+ update_at : date&lt;/p&gt;&lt;hr size=&quot;1&quot;&gt;&lt;p style=&quot;margin: 0px 0px 0px 4px&quot;&gt;+ tambah_transaksi()&lt;br style=&quot;padding: 0px ; margin: 0px&quot;&gt;+ tampil_transaksi()&lt;br style=&quot;padding: 0px ; margin: 0px&quot;&gt;+ ubah_transaksi()&lt;br style=&quot;padding: 0px ; margin: 0px&quot;&gt;+ hapus_transaksi()&lt;br style=&quot;padding: 0px ; margin: 0px&quot;&gt;&lt;/p&gt;&lt;p style=&quot;margin: 0px 0px 0px 4px&quot;&gt;+ cari_transaksi()&lt;/p&gt;&lt;p style=&quot;margin: 0px 0px 0px 4px&quot;&gt;+ kirim_notifikasi()&lt;/p&gt;&lt;p style=&quot;margin: 0px 0px 0px 4px&quot;&gt;+ cetak_laporan_bulanan()&lt;/p&gt;&lt;p style=&quot;margin: 0px 0px 0px 4px&quot;&gt;+ cetak_laporan_tahunan()&lt;/p&gt;&lt;p style=&quot;margin: 0px 0px 0px 4px&quot;&gt;+ cetak_penjualan_terbanyak_bulanan()&lt;/p&gt;&lt;p style=&quot;margin: 0px 0px 0px 4px&quot;&gt;&lt;br&gt;&lt;/p&gt;&lt;p style=&quot;margin: 0px 0px 0px 4px&quot;&gt;&lt;br&gt;&lt;/p&gt;&lt;p style=&quot;margin: 0px 0px 0px 4px&quot;&gt;&lt;br&gt;&lt;/p&gt;" style="verticalAlign=top;align=left;overflow=fill;fontSize=12;fontFamily=Helvetica;html=1;" vertex="1" parent="WIyWlLk6GJQsqaUBKTNV-1">
          <mxGeometry x="971" y="1040" width="270" height="300" as="geometry" />
        </mxCell>
        <mxCell id="ZQYL841AlwN9RQm3Srfx-11" value="&lt;p style=&quot;margin: 0px ; margin-top: 4px ; text-align: center&quot;&gt;&lt;b&gt;Produk&lt;/b&gt;&lt;/p&gt;&lt;hr size=&quot;1&quot;&gt;&lt;p style=&quot;margin: 0px 0px 0px 4px&quot;&gt;- id : int (Unique)&lt;/p&gt;&lt;p style=&quot;margin: 0px 0px 0px 4px&quot;&gt;- nama : String&lt;/p&gt;&lt;p style=&quot;margin: 0px 0px 0px 4px&quot;&gt;- satuan : varchar&lt;/p&gt;&lt;p style=&quot;margin: 0px 0px 0px 4px&quot;&gt;- stok : int&lt;/p&gt;&lt;p style=&quot;margin: 0px 0px 0px 4px&quot;&gt;- minimal : int&lt;/p&gt;&lt;p style=&quot;margin: 0px 0px 0px 4px&quot;&gt;- harga : Double&lt;/p&gt;&lt;p style=&quot;margin: 0px 0px 0px 4px&quot;&gt;- foto : varchar&lt;/p&gt;&lt;p style=&quot;margin: 0px 0px 0px 4px&quot;&gt;- created_at: Date&lt;/p&gt;&lt;p style=&quot;margin: 0px 0px 0px 4px&quot;&gt;- deleted_at: Date&lt;br&gt;&lt;/p&gt;&lt;p style=&quot;margin: 0px 0px 0px 4px&quot;&gt;- updated_at: Date&lt;/p&gt;&lt;hr size=&quot;1&quot;&gt;&lt;p style=&quot;margin: 0px ; margin-left: 4px&quot;&gt;+&lt;/p&gt;" style="verticalAlign=top;align=left;overflow=fill;fontSize=12;fontFamily=Helvetica;html=1;" vertex="1" parent="WIyWlLk6GJQsqaUBKTNV-1">
          <mxGeometry x="2000" y="680" width="160" height="320" as="geometry" />
        </mxCell>
        <mxCell id="ZQYL841AlwN9RQm3Srfx-12" value="&lt;p style=&quot;margin: 0px ; margin-top: 4px ; text-align: center&quot;&gt;&lt;b&gt;Detail_order_restock&lt;/b&gt;&lt;/p&gt;&lt;hr size=&quot;1&quot;&gt;&lt;p style=&quot;margin: 0px 0px 0px 4px&quot;&gt;- id : int (Unique)&lt;/p&gt;&lt;p style=&quot;margin: 0px 0px 0px 4px&quot;&gt;- jumlah : int&lt;/p&gt;&lt;hr size=&quot;1&quot;&gt;&lt;p style=&quot;margin: 0px ; margin-left: 4px&quot;&gt;+&amp;nbsp;&lt;/p&gt;" style="verticalAlign=top;align=left;overflow=fill;fontSize=12;fontFamily=Helvetica;html=1;" vertex="1" parent="WIyWlLk6GJQsqaUBKTNV-1">
          <mxGeometry x="2340" y="350" width="160" height="200" as="geometry" />
        </mxCell>
        <mxCell id="ZQYL841AlwN9RQm3Srfx-13" value="&lt;p style=&quot;margin: 0px ; margin-top: 4px ; text-align: center&quot;&gt;&lt;b&gt;Order_restock&lt;/b&gt;&lt;/p&gt;&lt;hr size=&quot;1&quot;&gt;&lt;p style=&quot;margin: 0px 0px 0px 4px&quot;&gt;- id : int (Unique)&lt;/p&gt;&lt;p style=&quot;margin: 0px 0px 0px 4px&quot;&gt;- tgl_restock : Date&lt;/p&gt;&lt;p style=&quot;margin: 0px 0px 0px 4px&quot;&gt;- total_bayar_restock : Double&lt;/p&gt;&lt;p style=&quot;margin: 0px 0px 0px 4px&quot;&gt;- status_bayar : int&lt;/p&gt;&lt;hr size=&quot;1&quot;&gt;&lt;p style=&quot;margin: 0px ; margin-left: 4px&quot;&gt;+ method(): Type&lt;/p&gt;" style="verticalAlign=top;align=left;overflow=fill;fontSize=12;fontFamily=Helvetica;html=1;" vertex="1" parent="WIyWlLk6GJQsqaUBKTNV-1">
          <mxGeometry x="1960" y="80" width="170" height="320" as="geometry" />
        </mxCell>
        <mxCell id="Zcnm54V735AdrH91eZw3-7" value="" style="endArrow=diamondThin;endFill=1;endSize=24;html=1;entryX=0.5;entryY=0;entryDx=0;entryDy=0;exitX=0.5;exitY=1;exitDx=0;exitDy=0;" edge="1" parent="WIyWlLk6GJQsqaUBKTNV-1" source="ZQYL841AlwN9RQm3Srfx-6" target="Zcnm54V735AdrH91eZw3-3">
          <mxGeometry width="160" relative="1" as="geometry">
            <mxPoint x="1190" y="640" as="sourcePoint" />
            <mxPoint x="1350" y="640" as="targetPoint" />
          </mxGeometry>
        </mxCell>
        <mxCell id="Zcnm54V735AdrH91eZw3-8" value="" style="endArrow=diamondThin;endFill=1;endSize=24;html=1;entryX=0.25;entryY=0;entryDx=0;entryDy=0;exitX=0.5;exitY=1;exitDx=0;exitDy=0;" edge="1" parent="WIyWlLk6GJQsqaUBKTNV-1" source="Zcnm54V735AdrH91eZw3-0" target="Zcnm54V735AdrH91eZw3-3">
          <mxGeometry width="160" relative="1" as="geometry">
            <mxPoint x="1030" y="930" as="sourcePoint" />
            <mxPoint x="1190" y="930" as="targetPoint" />
          </mxGeometry>
        </mxCell>
        <mxCell id="Zcnm54V735AdrH91eZw3-9" value="" style="endArrow=diamondThin;endFill=1;endSize=24;html=1;exitX=0.5;exitY=1;exitDx=0;exitDy=0;entryX=0.75;entryY=0;entryDx=0;entryDy=0;" edge="1" parent="WIyWlLk6GJQsqaUBKTNV-1" source="Zcnm54V735AdrH91eZw3-2" target="Zcnm54V735AdrH91eZw3-3">
          <mxGeometry width="160" relative="1" as="geometry">
            <mxPoint x="1030" y="930" as="sourcePoint" />
            <mxPoint x="1110" y="1040" as="targetPoint" />
          </mxGeometry>
        </mxCell>
        <mxCell id="Zcnm54V735AdrH91eZw3-10" value="" style="endArrow=diamondThin;endFill=1;endSize=24;html=1;entryX=0.75;entryY=0;entryDx=0;entryDy=0;exitX=0.5;exitY=1;exitDx=0;exitDy=0;" edge="1" parent="WIyWlLk6GJQsqaUBKTNV-1" source="ZQYL841AlwN9RQm3Srfx-7" target="ZQYL841AlwN9RQm3Srfx-6">
          <mxGeometry width="160" relative="1" as="geometry">
            <mxPoint x="1030" y="640" as="sourcePoint" />
            <mxPoint x="1190" y="640" as="targetPoint" />
          </mxGeometry>
        </mxCell>
        <mxCell id="Zcnm54V735AdrH91eZw3-11" value="" style="endArrow=open;endFill=1;endSize=12;html=1;entryX=0.25;entryY=1;entryDx=0;entryDy=0;exitX=0.5;exitY=0;exitDx=0;exitDy=0;" edge="1" parent="WIyWlLk6GJQsqaUBKTNV-1" source="ZQYL841AlwN9RQm3Srfx-0" target="ZQYL841AlwN9RQm3Srfx-2">
          <mxGeometry width="160" relative="1" as="geometry">
            <mxPoint x="100" y="640" as="sourcePoint" />
            <mxPoint x="260" y="640" as="targetPoint" />
          </mxGeometry>
        </mxCell>
      </root>
    </mxGraphModel>
  </diagram>
</mxfile>
